<svg height="942" width="720" xmlns="http://www.w3.org/2000/svg">
<rect height="942" fill="#555" width="720"></rect>
<text fill="#7f7" font-family="Courier New" font-size="12" xml:space="preserve">
<tspan x="10" y="26">3 megabytes installed</tspan>
<tspan x="10" y="42"></tspan>
<tspan x="10" y="58">node_modules</tspan>
<tspan x="10" y="74">└─┬ decompress@4.0.0 </tspan>
<tspan x="10" y="90">  ├─┬ decompress-tar@4.1.0 </tspan>
<tspan x="10" y="106">  │ ├── file-type@3.9.0 </tspan>
<tspan x="10" y="122">  │ ├── is-stream@1.1.0 </tspan>
<tspan x="10" y="138">  │ └─┬ tar-stream@1.5.2 </tspan>
<tspan x="10" y="154">  │   ├── bl@1.2.0 </tspan>
<tspan x="10" y="170">  │   ├─┬ end-of-stream@1.4.0 </tspan>
<tspan x="10" y="186">  │   │ └─┬ once@1.4.0 </tspan>
<tspan x="10" y="202">  │   │   └── wrappy@1.0.2 </tspan>
<tspan x="10" y="218">  │   ├─┬ readable-stream@2.2.9 </tspan>
<tspan x="10" y="234">  │   │ ├── buffer-shims@1.0.0 </tspan>
<tspan x="10" y="250">  │   │ ├── core-util-is@1.0.2 </tspan>
<tspan x="10" y="266">  │   │ ├── inherits@2.0.3 </tspan>
<tspan x="10" y="282">  │   │ ├── isarray@1.0.0 </tspan>
<tspan x="10" y="298">  │   │ ├── process-nextick-args@1.0.7 </tspan>
<tspan x="10" y="314">  │   │ ├── string_decoder@1.0.0 </tspan>
<tspan x="10" y="330">  │   │ └── util-deprecate@1.0.2 </tspan>
<tspan x="10" y="346">  │   └── xtend@4.0.1 </tspan>
<tspan x="10" y="362">  ├─┬ decompress-tarbz2@4.1.0 </tspan>
<tspan x="10" y="378">  │ ├─┬ seek-bzip@1.0.5 </tspan>
<tspan x="10" y="394">  │ │ └─┬ commander@2.8.1 </tspan>
<tspan x="10" y="410">  │ │   └── graceful-readlink@1.0.1 </tspan>
<tspan x="10" y="426">  │ └─┬ unbzip2-stream@1.0.11 </tspan>
<tspan x="10" y="442">  │   ├─┬ buffer@3.6.0 </tspan>
<tspan x="10" y="458">  │   │ ├── base64-js@0.0.8 </tspan>
<tspan x="10" y="474">  │   │ └── ieee754@1.1.8 </tspan>
<tspan x="10" y="490">  │   └── through@2.3.8 </tspan>
<tspan x="10" y="506">  ├── decompress-targz@4.0.0 </tspan>
<tspan x="10" y="522">  ├─┬ decompress-unzip@4.0.1 </tspan>
<tspan x="10" y="538">  │ ├─┬ get-stream@2.3.1 </tspan>
<tspan x="10" y="554">  │ │ ├── object-assign@4.1.1 </tspan>
<tspan x="10" y="570">  │ │ └─┬ pinkie-promise@2.0.1 </tspan>
<tspan x="10" y="586">  │ │   └── pinkie@2.0.4 </tspan>
<tspan x="10" y="602">  │ └─┬ yauzl@2.7.0 </tspan>
<tspan x="10" y="618">  │   ├── buffer-crc32@0.2.13 </tspan>
<tspan x="10" y="634">  │   └─┬ fd-slicer@1.0.1 </tspan>
<tspan x="10" y="650">  │     └── pend@1.2.0 </tspan>
<tspan x="10" y="666">  ├─┬ mkdirp@0.5.1 </tspan>
<tspan x="10" y="682">  │ └── minimist@0.0.8 </tspan>
<tspan x="10" y="698">  ├── pify@2.3.0 </tspan>
<tspan x="10" y="714">  └─┬ strip-dirs@1.1.1 </tspan>
<tspan x="10" y="730">    ├─┬ chalk@1.1.3 </tspan>
<tspan x="10" y="746">    │ ├── ansi-styles@2.2.1 </tspan>
<tspan x="10" y="762">    │ ├── escape-string-regexp@1.0.5 </tspan>
<tspan x="10" y="778">    │ ├─┬ has-ansi@2.0.0 </tspan>
<tspan x="10" y="794">    │ │ └── ansi-regex@2.1.1 </tspan>
<tspan x="10" y="810">    │ ├── strip-ansi@3.0.1 </tspan>
<tspan x="10" y="826">    │ └── supports-color@2.0.0 </tspan>
<tspan x="10" y="842">    ├── get-stdin@4.0.1 </tspan>
<tspan x="10" y="858">    ├─┬ is-absolute@0.1.7 </tspan>
<tspan x="10" y="874">    │ └── is-relative@0.1.3 </tspan>
<tspan x="10" y="890">    ├── is-natural-number@2.1.1 </tspan>
<tspan x="10" y="906">    ├── minimist@1.2.0 </tspan>
<tspan x="10" y="922">    └── sum-up@1.0.3</tspan>
</text>
</svg>
